<?xml version="1.0" encoding="utf-8"?>
<!-- Generator: Adobe Illustrator 21.1.0, SVG Export Plug-In . SVG Version: 6.00 Build 0)  -->
<svg version="1.1" id="Layer_1" xmlns="http://www.w3.org/2000/svg" xmlns:xlink="http://www.w3.org/1999/xlink" x="0px" y="0px"
	 viewBox="0 0 88 96" style="enable-background:new 0 0 88 96;" xml:space="preserve">
<style type="text/css">
	.st0{fill:#BA9991;}
</style>
<path class="st0" d="M41.7,79.3c0.7,0.5,1.5,0.7,2.3,0.7s1.6-0.2,2.3-0.7C47.5,78.4,76,58.2,76,32C76,14.4,61.6,0,44,0
	S12,14.4,12,32C12,58.2,40.5,78.4,41.7,79.3z M44,8c13.2,0,24,10.8,24,24c0,18.1-17.6,33.8-24,39c-6.4-5.1-24-20.9-24-39
	C20,18.8,30.8,8,44,8z M56,32c0-6.6-5.4-12-12-12s-12,5.4-12,12s5.4,12,12,12S56,38.6,56,32z M40,32c0-2.2,1.8-4,4-4s4,1.8,4,4
	s-1.8,4-4,4S40,34.2,40,32z M87.5,90.1l-12-22c-0.7-1.3-2-2.1-3.5-2.1h-4c-2.2,0-4,1.8-4,4s1.8,4,4,4h1.6l7.6,14H10.7l7.6-14H20
	c2.2,0,4-1.8,4-4s-1.8-4-4-4h-4c-1.5,0-2.8,0.8-3.5,2.1l-12,22c-0.7,1.2-0.6,2.7,0.1,4c0.7,1.2,2,2,3.4,2h80c1.4,0,2.7-0.7,3.4-2
	C88.2,92.8,88.2,91.3,87.5,90.1z"/>
</svg>
